<?xml version="1.0" encoding="UTF-8"?>
<svg width="158px" height="32px" viewBox="0 0 158 32" version="1.1" xmlns="http://www.w3.org/2000/svg" xmlns:xlink="http://www.w3.org/1999/xlink">
    <!-- Generator: Sketch 49.3 (51167) - http://www.bohemiancoding.com/sketch -->
    <title>logo-stockarea-full</title>
    <desc>Created with Sketch.</desc>
    <defs></defs>
    <g id="Page-1" stroke="none" stroke-width="1" fill="none" fill-rule="evenodd">
        <g id="Regular-Web-Copy-2" transform="translate(-80.000000, -20.000000)">
            <g id="Group" transform="translate(80.000000, 20.000000)">
                <g id="Stockarea-logo">
                    <path d="M28.9349398,1.09879518 L38.4578313,10.6216867" id="Shape" stroke="#ED3232" stroke-width="2.28" stroke-linecap="round"></path>
                    <path d="M1.46506024,2.19759036 L28.5686747,2.19759036 C29.1755225,2.19759036 29.6674699,1.705643 29.6674699,1.09879518 C29.6674699,0.491947359 29.1755225,0 28.5686747,0 L1.46506024,0 C0.858212419,0 0.36626506,0.491947359 0.36626506,1.09879518 C0.36626506,1.705643 0.858212419,2.19759036 1.46506024,2.19759036 Z" id="Shape" fill="#ED3232" fill-rule="nonzero"></path>
                    <path d="M1.46506024,22.7084337 L28.5686747,22.7084337 C29.1755225,22.7084337 29.6674699,22.2164864 29.6674699,21.6096386 C29.6674699,21.0027907 29.1755225,20.5108434 28.5686747,20.5108434 L1.46506024,20.5108434 C0.858212419,20.5108434 0.36626506,21.0027907 0.36626506,21.6096386 C0.36626506,22.2164864 0.858212419,22.7084337 1.46506024,22.7084337 Z" id="Shape" fill="#ED3232" fill-rule="nonzero"></path>
                    <path d="M2.19759036,21.9759036 L2.19759036,1.46506024 C2.19759036,0.858212419 1.705643,0.36626506 1.09879518,0.36626506 C0.491947359,0.36626506 0,0.858212419 0,1.46506024 L0,21.9759036 C0,22.5827514 0.491947359,23.0746988 1.09879518,23.0746988 C1.705643,23.0746988 2.19759036,22.5827514 2.19759036,21.9759036 Z" id="Shape" fill="#ED3232" fill-rule="nonzero"></path>
                    <path d="M30.0337349,21.2433735 L30.0337349,14.2257349 C30.0337349,13.6188871 29.5417876,13.1269398 28.9349398,13.1269398 C28.3280919,13.1269398 27.8361446,13.6188871 27.8361446,14.2257349 L27.8361446,21.2433735 C27.8361446,21.8502213 28.3280919,22.3421687 28.9349398,22.3421687 C29.5417876,22.3421687 30.0337349,21.8502213 30.0337349,21.2433735 Z" id="Shape" fill="#ED3232" fill-rule="nonzero"></path>
                    <path d="M10.9879518,11.7204819 L38.0915663,11.7204819 C38.6984141,11.7204819 39.1903614,11.2285346 39.1903614,10.6216867 C39.1903614,10.0148389 38.6984141,9.52289157 38.0915663,9.52289157 L10.9879518,9.52289157 C10.381104,9.52289157 9.88915663,10.0148389 9.88915663,10.6216867 C9.88915663,11.2285346 10.381104,11.7204819 10.9879518,11.7204819 Z" id="Shape" fill="#ED3232" fill-rule="nonzero"></path>
                    <path d="M10.9879518,31.4987952 L38.0915663,31.4987952 C38.6984141,31.4987952 39.1903614,31.0068478 39.1903614,30.4 C39.1903614,29.7931522 38.6984141,29.3012048 38.0915663,29.3012048 L10.9879518,29.3012048 C10.381104,29.3012048 9.88915663,29.7931522 9.88915663,30.4 C9.88915663,31.0068478 10.381104,31.4987952 10.9879518,31.4987952 Z" id="Shape" fill="#ED3232" fill-rule="nonzero"></path>
                    <path d="M11.7204819,18.0055904 L11.7204819,10.9879518 C11.7204819,10.381104 11.2285346,9.88915663 10.6216867,9.88915663 C10.0148389,9.88915663 9.52289157,10.381104 9.52289157,10.9879518 L9.52289157,18.0055904 C9.52289157,18.6124382 10.0148389,19.1043855 10.6216867,19.1043855 C11.2285346,19.1043855 11.7204819,18.6124382 11.7204819,18.0055904 Z" id="Shape" fill="#ED3232" fill-rule="nonzero"></path>
                    <path d="M39.5566265,30.0337349 L39.5566265,10.9879518 C39.5566265,10.381104 39.0646791,9.88915663 38.4578313,9.88915663 C37.8509835,9.88915663 37.3590361,10.381104 37.3590361,10.9879518 L37.3590361,30.0337349 C37.3590361,30.6405828 37.8509835,31.1325301 38.4578313,31.1325301 C39.0646791,31.1325301 39.5566265,30.6405828 39.5566265,30.0337349 Z" id="Shape" fill="#ED3232" fill-rule="nonzero"></path>
                    <path d="M1.09879518,22.3421687 L10.6216867,30.4" id="Shape" stroke="#ED3232" stroke-width="2.28" stroke-linecap="round"></path>
                    <path d="M1.09879518,2.25619277 C1.705643,2.25619277 2.19759036,1.76424541 2.19759036,1.15739759 C2.19759036,0.550549769 1.705643,0.0586024096 1.09879518,0.0586024096 C0.491947359,0.0586024096 0,0.550549769 0,1.15739759 C0,1.76424541 0.491947359,2.25619277 1.09879518,2.25619277 Z" id="Shape" fill="#ED3232" fill-rule="nonzero"></path>
                    <path d="M28.8470361,22.7084337 C29.453884,22.7084337 29.9458313,22.2164864 29.9458313,21.6096386 C29.9458313,21.0027907 29.453884,20.5108434 28.8470361,20.5108434 C28.2401883,20.5108434 27.748241,21.0027907 27.748241,21.6096386 C27.748241,22.2164864 28.2401883,22.7084337 28.8470361,22.7084337 Z" id="Shape" fill="#ED3232" fill-rule="nonzero"></path>
                    <path d="M28.890988,22.642506 C29.4978358,22.642506 29.9897831,22.1505587 29.9897831,21.5437108 C29.9897831,20.936863 29.4978358,20.4449157 28.890988,20.4449157 C28.2841401,20.4449157 27.7921928,20.936863 27.7921928,21.5437108 C27.7921928,22.1505587 28.2841401,22.642506 28.890988,22.642506 Z" id="Shape" fill="#ED3232" fill-rule="nonzero"></path>
                    <path d="M28.9349398,22.6644819 C29.5417876,22.6644819 30.0337349,22.1725346 30.0337349,21.5656867 C30.0337349,20.9588389 29.5417876,20.4668916 28.9349398,20.4668916 C28.3280919,20.4668916 27.8361446,20.9588389 27.8361446,21.5656867 C27.8361446,22.1725346 28.3280919,22.6644819 28.9349398,22.6644819 Z" id="Shape" fill="#ED3232" fill-rule="nonzero"></path>
                    <path d="M10.6656386,11.7204819 C11.2724864,11.7204819 11.7644337,11.2285346 11.7644337,10.6216867 C11.7644337,10.0148389 11.2724864,9.52289157 10.6656386,9.52289157 C10.0587907,9.52289157 9.56684337,10.0148389 9.56684337,10.6216867 C9.56684337,11.2285346 10.0587907,11.7204819 10.6656386,11.7204819 Z" id="Shape" fill="#ED3232" fill-rule="nonzero"></path>
                    <path d="M10.6436627,11.8816386 C11.2505105,11.8816386 11.7424578,11.3896912 11.7424578,10.7828434 C11.7424578,10.1759956 11.2505105,9.68404819 10.6436627,9.68404819 C10.0368148,9.68404819 9.54486747,10.1759956 9.54486747,10.7828434 C9.54486747,11.3896912 10.0368148,11.8816386 10.6436627,11.8816386 Z" id="Shape" fill="#ED3232" fill-rule="nonzero"></path>
                    <path d="M10.6436627,11.7644337 C11.2505105,11.7644337 11.7424578,11.2724864 11.7424578,10.6656386 C11.7424578,10.0587907 11.2505105,9.56684337 10.6436627,9.56684337 C10.0368148,9.56684337 9.54486747,10.0587907 9.54486747,10.6656386 C9.54486747,11.2724864 10.0368148,11.7644337 10.6436627,11.7644337 Z" id="Shape" fill="#ED3232" fill-rule="nonzero"></path>
                    <path d="M10.6436627,11.7644337 C11.2505105,11.7644337 11.7424578,11.2724864 11.7424578,10.6656386 C11.7424578,10.0587907 11.2505105,9.56684337 10.6436627,9.56684337 C10.0368148,9.56684337 9.54486747,10.0587907 9.54486747,10.6656386 C9.54486747,11.2724864 10.0368148,11.7644337 10.6436627,11.7644337 Z" id="Shape" fill="#ED3232" fill-rule="nonzero"></path>
                    <path d="M10.6436627,11.7644337 C11.2505105,11.7644337 11.7424578,11.2724864 11.7424578,10.6656386 C11.7424578,10.0587907 11.2505105,9.56684337 10.6436627,9.56684337 C10.0368148,9.56684337 9.54486747,10.0587907 9.54486747,10.6656386 C9.54486747,11.2724864 10.0368148,11.7644337 10.6436627,11.7644337 Z" id="Shape" fill="#ED3232" fill-rule="nonzero"></path>
                    <path d="M10.6436627,11.7644337 C11.2505105,11.7644337 11.7424578,11.2724864 11.7424578,10.6656386 C11.7424578,10.0587907 11.2505105,9.56684337 10.6436627,9.56684337 C10.0368148,9.56684337 9.54486747,10.0587907 9.54486747,10.6656386 C9.54486747,11.2724864 10.0368148,11.7644337 10.6436627,11.7644337 Z" id="Shape" fill="#ED3232" fill-rule="nonzero"></path>
                    <path d="M38.4285301,31.4987952 C39.0353779,31.4987952 39.5273253,31.0068478 39.5273253,30.4 C39.5273253,29.7931522 39.0353779,29.3012048 38.4285301,29.3012048 C37.8216823,29.3012048 37.3297349,29.7931522 37.3297349,30.4 C37.3297349,31.0068478 37.8216823,31.4987952 38.4285301,31.4987952 Z" id="Shape" fill="#ED3232" fill-rule="nonzero"></path>
                    <path d="M38.4871325,31.4108916 C39.0939804,31.4108916 39.5859277,30.9189442 39.5859277,30.3120964 C39.5859277,29.7052486 39.0939804,29.2133012 38.4871325,29.2133012 C37.8802847,29.2133012 37.3883373,29.7052486 37.3883373,30.3120964 C37.3883373,30.9189442 37.8802847,31.4108916 38.4871325,31.4108916 Z" id="Shape" fill="#ED3232" fill-rule="nonzero"></path>
                    <path d="M1.1866988,2.19759036 C1.79354662,2.19759036 2.28549398,1.705643 2.28549398,1.09879518 C2.28549398,0.491947359 1.79354662,0 1.1866988,0 C0.579850974,0 0.0879036145,0.491947359 0.0879036145,1.09879518 C0.0879036145,1.705643 0.579850974,2.19759036 1.1866988,2.19759036 Z" id="Shape" fill="#ED3232" fill-rule="nonzero"></path>
                </g>
                <path d="M50.0405976,22.6754313 C49.8999511,22.4566479 49.8296289,22.2456813 49.8296289,22.0425253 C49.8296289,21.7299776 49.993714,21.464316 50.3218892,21.2455325 C50.478163,21.1361408 50.6578753,21.0814458 50.8610313,21.0814458 C51.1423243,21.0814458 51.4001723,21.1986494 51.6345831,21.4330602 C52.1034048,21.9643914 52.6073804,22.3628838 53.1465253,22.6285494 C53.6856702,22.894215 54.3302902,23.0270458 55.0804048,23.0270458 C55.6742455,23.0114184 56.1977552,22.8746808 56.6509494,22.6168289 C57.1041436,22.358977 57.3307373,21.9409507 57.3307373,21.3627373 C57.3307373,20.8314062 57.1002368,20.4251002 56.6392289,20.1438072 C56.178221,19.8625143 55.5023466,19.6046662 54.6115855,19.3702554 C53.7364518,19.1358446 53.0097892,18.889717 52.4315759,18.6318651 C51.8533626,18.3740132 51.365014,17.9989615 50.9665157,17.5066988 C50.5680173,17.0144361 50.3687711,16.369816 50.3687711,15.5728193 C50.3687711,14.8695868 50.5680173,14.2523143 50.9665157,13.7209831 C51.365014,13.189652 51.8963372,12.7755324 52.5605012,12.478612 C53.2246652,12.1816917 53.947421,12.0332337 54.7287904,12.0332337 C55.478905,12.0332337 56.2251015,12.1738781 56.9674024,12.4551711 C57.7097033,12.7364641 58.3152555,13.1662108 58.7840771,13.7444241 C58.9716058,13.9632075 59.0653687,14.1898012 59.0653687,14.424212 C59.0653687,14.6742502 58.9403515,14.9164711 58.6903133,15.1508819 C58.5340394,15.2915284 58.3387,15.3618506 58.1042892,15.3618506 C57.8229962,15.3618506 57.5964025,15.2680877 57.4245012,15.080559 C57.0963261,14.7055017 56.6939269,14.4163994 56.2172916,14.2132434 C55.7406563,14.0100873 55.2132398,13.9085108 54.6350265,13.9085108 C54.0411858,13.9085108 53.5372101,14.0296213 53.1230843,14.2718458 C52.7089586,14.5140703 52.5018988,14.9242831 52.5018988,15.5024964 C52.5175262,16.0494549 52.7558403,16.4557609 53.2168482,16.7214265 C53.6778561,16.9870921 54.3849848,17.2449401 55.3382554,17.4949783 C56.166507,17.7137617 56.8541017,17.948169 57.4010602,18.1982072 C57.9480188,18.4482454 58.4090198,18.8193903 58.7840771,19.311653 C59.1591344,19.8039157 59.3466602,20.4485358 59.3466602,21.2455325 C59.3466602,21.9800197 59.1356937,22.6168262 58.7137542,23.1559711 C58.2918148,23.6951159 57.7409576,24.1092355 57.0611663,24.3983422 C56.3813749,24.6874488 55.6586191,24.832 54.8928771,24.832 C53.9083517,24.832 52.99807,24.6601013 52.1620048,24.3162988 C51.3259396,23.9724963 50.6188109,23.4255459 50.0405976,22.6754313 Z M65.2537831,14.4945349 L65.2537831,21.4799422 C65.2537831,22.2613115 65.6053941,22.6519904 66.3086265,22.6519904 C66.4180182,22.6519904 66.5664762,22.6246428 66.7540048,22.569947 C66.9415335,22.5152511 67.0899914,22.4879036 67.1993831,22.4879036 C67.4025392,22.4879036 67.5744379,22.573853 67.7150843,22.7457542 C67.8557308,22.9176555 67.926053,23.1364356 67.926053,23.4021012 C67.926053,23.7302763 67.7385272,24.0115651 67.3634699,24.2459759 C66.9884126,24.4803867 66.5664795,24.5975904 66.0976578,24.5975904 C65.581954,24.5975904 65.1092327,24.5428953 64.6794795,24.4335036 C64.2497264,24.3241119 63.8668611,24.0467299 63.5308723,23.6013494 C63.1948835,23.1559689 63.0268916,22.4800945 63.0268916,21.573706 L63.0268916,14.4945349 L61.6673157,14.4945349 C61.3703953,14.4945349 61.1242676,14.3968652 60.9289253,14.2015229 C60.733583,14.0061805 60.6359133,13.7600529 60.6359133,13.4631325 C60.6359133,13.1662122 60.733583,12.9239913 60.9289253,12.7364627 C61.1242676,12.548934 61.3703953,12.4551711 61.6673157,12.4551711 L63.0268916,12.4551711 L63.0268916,10.4861301 C63.0268916,10.1735824 63.1323748,9.90792077 63.3433446,9.68913735 C63.5543143,9.47035393 63.8238827,9.36096386 64.1520578,9.36096386 C64.4646056,9.36096386 64.7263604,9.47035393 64.9373301,9.68913735 C65.1482999,9.90792077 65.2537831,10.1735824 65.2537831,10.4861301 L65.2537831,12.4551711 L67.1993831,12.4551711 C67.4963035,12.4551711 67.7424312,12.5528408 67.9377735,12.7481831 C68.1331158,12.9435255 68.2307855,13.1896531 68.2307855,13.4865735 C68.2307855,13.7834939 68.1331158,14.0257147 67.9377735,14.2132434 C67.7424312,14.400772 67.4963035,14.4945349 67.1993831,14.4945349 L65.2537831,14.4945349 Z M82.3422458,18.4560578 C82.3422458,19.674994 82.0687706,20.7688948 81.521812,21.7377928 C80.9748535,22.7066908 80.2286569,23.4646077 79.2832,24.0115663 C78.3377431,24.5585248 77.2946306,24.832 76.1538313,24.832 C75.013032,24.832 73.9699196,24.5585248 73.0244627,24.0115663 C72.0790057,23.4646077 71.3328092,22.7066908 70.7858506,21.7377928 C70.238892,20.7688948 69.9654169,19.674994 69.9654169,18.4560578 C69.9654169,17.2371216 70.238892,16.1354073 70.7858506,15.1508819 C71.3328092,14.1663565 72.0790057,13.400626 73.0244627,12.8536675 C73.9699196,12.3067089 75.013032,12.0332337 76.1538313,12.0332337 C77.2946306,12.0332337 78.3377431,12.3067089 79.2832,12.8536675 C80.2286569,13.400626 80.9748535,14.1663565 81.521812,15.1508819 C82.0687706,16.1354073 82.3422458,17.2371216 82.3422458,18.4560578 Z M80.1153542,18.4560578 C80.1153542,17.6121789 79.9395487,16.8581688 79.5879325,16.1940048 C79.2363163,15.5298409 78.7596881,15.0141448 78.1580337,14.6469012 C77.5563793,14.2796576 76.8883185,14.0960386 76.1538313,14.0960386 C75.4193441,14.0960386 74.7512833,14.2796576 74.1496289,14.6469012 C73.5479745,15.0141448 73.0713463,15.5298409 72.7197301,16.1940048 C72.3681139,16.8581688 72.1923084,17.6121789 72.1923084,18.4560578 C72.1923084,19.2843094 72.3681139,20.0265991 72.7197301,20.6829494 C73.0713463,21.3392997 73.5479745,21.8510889 74.1496289,22.2183325 C74.7512833,22.5855761 75.4193441,22.7691952 76.1538313,22.7691952 C76.8883185,22.7691952 77.5563793,22.5855761 78.1580337,22.2183325 C78.7596881,21.8510889 79.2363163,21.3392997 79.5879325,20.6829494 C79.9395487,20.0265991 80.1153542,19.2843094 80.1153542,18.4560578 Z M90.2652916,12.0332337 C91.4998552,12.0332337 92.5273405,12.2285731 93.3477783,12.6192578 C94.1682162,13.0099425 94.5784289,13.5100114 94.5784289,14.1194795 C94.5784289,14.3851451 94.4924796,14.6234592 94.3205783,14.8344289 C94.1486771,15.0453986 93.9298969,15.1508819 93.6642313,15.1508819 C93.4610753,15.1508819 93.300897,15.1196276 93.1836916,15.0571181 C93.0664862,14.9946085 92.9063078,14.893032 92.7031518,14.7523855 C92.6093875,14.6586212 92.4609295,14.5492311 92.2577735,14.424212 C92.0702448,14.3304477 91.8045832,14.252312 91.4607807,14.1898024 C91.1169782,14.1272929 90.8044351,14.0960386 90.5231422,14.0960386 C89.710518,14.0960386 88.991669,14.2835644 88.3665735,14.6586217 C87.741478,15.033679 87.2570363,15.5532818 86.9132337,16.2174458 C86.5694312,16.8816097 86.3975325,17.6199927 86.3975325,18.4326169 C86.3975325,19.2608684 86.5655244,20.0031582 86.9015133,20.6595084 C87.2375021,21.3158587 87.7102235,21.8315548 88.3196916,22.206612 C88.9291597,22.5816693 89.624568,22.7691952 90.4059373,22.7691952 C91.2185615,22.7691952 91.8749019,22.644178 92.3749783,22.3941398 C92.48437,22.3316302 92.632828,22.2300537 92.8203566,22.0894072 C92.9766305,21.9643881 93.1133681,21.8706252 93.2305735,21.8081157 C93.3477789,21.7456061 93.4923301,21.7143518 93.6642313,21.7143518 C93.9767791,21.7143518 94.2229067,21.8120215 94.4026217,22.0073639 C94.5823366,22.2027062 94.6721928,22.4566474 94.6721928,22.7691952 C94.6721928,23.0973703 94.465133,23.4216337 94.0510072,23.7419952 C93.6368815,24.0623566 93.0821175,24.3241114 92.3866988,24.5272675 C91.6912801,24.7304235 90.9450835,24.832 90.1480867,24.832 C88.9604053,24.832 87.9133861,24.554618 87.0069976,23.9998458 C86.1006091,23.4450735 85.401294,22.679343 84.9090313,21.7026313 C84.4167686,20.7259196 84.170641,19.6359257 84.170641,18.4326169 C84.170641,17.229308 84.428489,16.1393141 84.9441928,15.1626024 C85.4598966,14.1858907 86.1787456,13.4201602 87.1007614,12.865388 C88.0227773,12.3106157 89.0776101,12.0332337 90.2652916,12.0332337 Z M107.00214,22.6519904 C107.236551,22.9020286 107.353754,23.1755037 107.353754,23.4724241 C107.353754,23.7849718 107.232644,24.0467267 106.990419,24.2576964 C106.748195,24.4686661 106.494254,24.5741494 106.228588,24.5741494 C105.884785,24.5741494 105.61131,24.4491322 105.408154,24.199094 L100.790284,19.2999325 L99.3838265,20.5657446 L99.3838265,23.4724241 C99.3838265,23.7849718 99.2783432,24.0506334 99.0673735,24.2694169 C98.8564038,24.4882003 98.594649,24.5975904 98.2821012,24.5975904 C97.9539261,24.5975904 97.6843577,24.4882003 97.473388,24.2694169 C97.2624182,24.0506334 97.1569349,23.7849718 97.1569349,23.4724241 L97.1569349,8.37644337 C97.1569349,8.06389563 97.2624182,7.79823403 97.473388,7.5794506 C97.6843577,7.36066718 97.9539261,7.25127711 98.2821012,7.25127711 C98.594649,7.25127711 98.8564038,7.36066718 99.0673735,7.5794506 C99.2783432,7.79823403 99.3838265,8.06389563 99.3838265,8.37644337 L99.3838265,17.8934747 L105.126863,12.6192578 C105.392528,12.384847 105.666003,12.2676434 105.947296,12.2676434 C106.212962,12.2676434 106.455183,12.3809402 106.673966,12.6075373 C106.89275,12.8341345 107.00214,13.0724485 107.00214,13.3224867 C107.00214,13.6350345 106.853682,13.9163232 106.556761,14.1663614 L102.501475,17.7762699 L107.00214,22.6519904 Z M119.847788,12.1504386 C120.175963,12.1504386 120.445531,12.2559218 120.656501,12.4668916 C120.867471,12.6778613 120.972954,12.9552433 120.972954,13.2990458 L120.972954,23.4724241 C120.972954,23.7849718 120.867471,24.0506334 120.656501,24.2694169 C120.445531,24.4882003 120.175963,24.5975904 119.847788,24.5975904 C119.519613,24.5975904 119.253951,24.4921071 119.050795,24.2811373 C118.847639,24.0701676 118.746063,23.8005992 118.746063,23.4724241 L118.746063,22.862959 C118.339751,23.4099176 117.784987,23.8748254 117.081754,24.2576964 C116.378522,24.6405674 115.620605,24.832 114.807981,24.832 C113.745318,24.832 112.780342,24.5585248 111.913022,24.0115663 C111.045702,23.4646077 110.365921,22.702784 109.873658,21.7260723 C109.381395,20.7493606 109.135267,19.6515531 109.135267,18.4326169 C109.135267,17.2136807 109.381395,16.1158732 109.873658,15.1391614 C110.365921,14.1624497 111.041795,13.400626 111.901301,12.8536675 C112.760808,12.3067089 113.70625,12.0332337 114.737658,12.0332337 C115.565909,12.0332337 116.335547,12.2051324 117.046593,12.5489349 C117.757639,12.8927375 118.324123,13.3302977 118.746063,13.8616289 L118.746063,13.2990458 C118.746063,12.9708706 118.847639,12.6973955 119.050795,12.478612 C119.253951,12.2598286 119.519613,12.1504386 119.847788,12.1504386 Z M115.065831,22.7691952 C115.800319,22.7691952 116.452752,22.5816693 117.023152,22.206612 C117.593551,21.8315548 118.038925,21.3158587 118.359287,20.6595084 C118.679648,20.0031582 118.839827,19.2608684 118.839827,18.4326169 C118.839827,17.6199927 118.679648,16.8855165 118.359287,16.2291663 C118.038925,15.572816 117.593551,15.0532132 117.023152,14.6703422 C116.452752,14.2874712 115.800319,14.0960386 115.065831,14.0960386 C114.331344,14.0960386 113.67891,14.2835644 113.108511,14.6586217 C112.538111,15.033679 112.092737,15.549375 111.772376,16.2057253 C111.452014,16.8620756 111.291836,17.6043653 111.291836,18.4326169 C111.291836,19.2608684 111.452014,20.0031582 111.772376,20.6595084 C112.092737,21.3158587 112.538111,21.8315548 113.108511,22.206612 C113.67891,22.5816693 114.331344,22.7691952 115.065831,22.7691952 Z M130.396222,12.0332337 C130.802534,12.0332337 131.154145,12.138717 131.451065,12.3496867 C131.747985,12.5606565 131.896443,12.8224113 131.896443,13.134959 C131.896443,13.5100163 131.798774,13.7952119 131.603431,13.9905542 C131.408089,14.1858966 131.169775,14.2835663 130.888482,14.2835663 C130.747835,14.2835663 130.536869,14.2366848 130.255576,14.1429205 C129.927401,14.0335288 129.669553,13.9788337 129.482024,13.9788337 C128.997575,13.9788337 128.524854,14.1468256 128.063846,14.4828145 C127.602838,14.8188033 127.227786,15.2798043 126.93868,15.8658313 C126.649573,16.4518584 126.505022,17.104292 126.505022,17.8231518 L126.505022,23.4724241 C126.505022,23.7849718 126.399538,24.0506334 126.188569,24.2694169 C125.977599,24.4882003 125.708031,24.5975904 125.379855,24.5975904 C125.05168,24.5975904 124.786019,24.4921071 124.582863,24.2811373 C124.379707,24.0701676 124.27813,23.8005992 124.27813,23.4724241 L124.27813,13.4396916 C124.27813,13.1271438 124.383613,12.8614822 124.594583,12.6426988 C124.805553,12.4239154 125.067308,12.3145253 125.379855,12.3145253 C125.708031,12.3145253 125.977599,12.4239154 126.188569,12.6426988 C126.399538,12.8614822 126.505022,13.1271438 126.505022,13.4396916 L126.505022,14.6351807 C126.848824,13.8694387 127.36452,13.2482594 128.052125,12.7716241 C128.73973,12.2949888 129.521088,12.0488611 130.396222,12.0332337 Z M144.22639,17.9872386 C144.210763,18.2685315 144.093559,18.5068456 143.874776,18.702188 C143.655992,18.8975303 143.398144,18.9952 143.101224,18.9952 L134.850005,18.9952 C134.959397,20.1359993 135.39305,21.0501877 136.150978,21.7377928 C136.908907,22.4253978 137.834815,22.7691952 138.928733,22.7691952 C139.678847,22.7691952 140.288306,22.6598051 140.757128,22.4410217 C141.225949,22.2222383 141.640069,21.9409495 141.999499,21.597147 C142.23391,21.4565005 142.460503,21.3861783 142.679287,21.3861783 C142.944952,21.3861783 143.167639,21.4799412 143.347354,21.6674699 C143.527069,21.8549985 143.616925,22.0737787 143.616925,22.3238169 C143.616925,22.651992 143.460654,22.9489079 143.148106,23.2145735 C142.694912,23.6677677 142.093266,24.050633 141.343152,24.3631807 C140.593037,24.6757285 139.827307,24.832 139.045937,24.832 C137.780119,24.832 136.666684,24.5663384 135.7056,24.0350072 C134.744516,23.5036761 134.002226,22.7613863 133.478708,21.8081157 C132.955191,20.854845 132.693436,19.7765715 132.693436,18.5732627 C132.693436,17.2605621 132.963005,16.1080596 133.502149,15.1157205 C134.041294,14.1233814 134.75233,13.3615577 135.635277,12.8302265 C136.518224,12.2988953 137.467574,12.0332337 138.483354,12.0332337 C139.483507,12.0332337 140.421136,12.2910818 141.29627,12.8067855 C142.171404,13.3224893 142.874625,14.0335248 143.405957,14.9399133 C143.937288,15.8463017 144.210763,16.8620667 144.22639,17.9872386 Z M138.483354,14.0960386 C137.608221,14.0960386 136.850304,14.3421662 136.209581,14.8344289 C135.568858,15.3266916 135.146925,16.0885153 134.943769,17.1199229 L141.858853,17.1199229 L141.858853,16.9323952 C141.780716,16.1041436 141.409571,15.4243625 140.745407,14.8930313 C140.081243,14.3617002 139.327233,14.0960386 138.483354,14.0960386 Z M156.86107,12.1504386 C157.189245,12.1504386 157.458813,12.2559218 157.669783,12.4668916 C157.880753,12.6778613 157.986236,12.9552433 157.986236,13.2990458 L157.986236,23.4724241 C157.986236,23.7849718 157.880753,24.0506334 157.669783,24.2694169 C157.458813,24.4882003 157.189245,24.5975904 156.86107,24.5975904 C156.532895,24.5975904 156.267233,24.4921071 156.064077,24.2811373 C155.860921,24.0701676 155.759345,23.8005992 155.759345,23.4724241 L155.759345,22.862959 C155.353033,23.4099176 154.798269,23.8748254 154.095036,24.2576964 C153.391804,24.6405674 152.633887,24.832 151.821263,24.832 C150.7586,24.832 149.793624,24.5585248 148.926304,24.0115663 C148.058984,23.4646077 147.379202,22.702784 146.88694,21.7260723 C146.394677,20.7493606 146.148549,19.6515531 146.148549,18.4326169 C146.148549,17.2136807 146.394677,16.1158732 146.88694,15.1391614 C147.379202,14.1624497 148.055077,13.400626 148.914583,12.8536675 C149.774089,12.3067089 150.719532,12.0332337 151.75094,12.0332337 C152.579191,12.0332337 153.348829,12.2051324 154.059875,12.5489349 C154.770921,12.8927375 155.337405,13.3302977 155.759345,13.8616289 L155.759345,13.2990458 C155.759345,12.9708706 155.860921,12.6973955 156.064077,12.478612 C156.267233,12.2598286 156.532895,12.1504386 156.86107,12.1504386 Z M152.079113,22.7691952 C152.8136,22.7691952 153.466034,22.5816693 154.036434,22.206612 C154.606833,21.8315548 155.052207,21.3158587 155.372569,20.6595084 C155.69293,20.0031582 155.853108,19.2608684 155.853108,18.4326169 C155.853108,17.6199927 155.69293,16.8855165 155.372569,16.2291663 C155.052207,15.572816 154.606833,15.0532132 154.036434,14.6703422 C153.466034,14.2874712 152.8136,14.0960386 152.079113,14.0960386 C151.344626,14.0960386 150.692192,14.2835644 150.121793,14.6586217 C149.551393,15.033679 149.106019,15.549375 148.785658,16.2057253 C148.465296,16.8620756 148.305118,17.6043653 148.305118,18.4326169 C148.305118,19.2608684 148.465296,20.0031582 148.785658,20.6595084 C149.106019,21.3158587 149.551393,21.8315548 150.121793,22.206612 C150.692192,22.5816693 151.344626,22.7691952 152.079113,22.7691952 Z" id="stockarea" fill="#3E3E3E"></path>
            </g>
        </g>
    </g>
</svg>